<?xml version="1.0" standalone="no"?>
<!DOCTYPE svg PUBLIC "-//W3C//DTD SVG 1.1//EN" "http://www.w3.org/Graphics/SVG/1.1/DTD/svg11.dtd">
<svg xmlns="http://www.w3.org/2000/svg" id="Layer_1" viewBox="0 0 1573.43 465.2" width="1573.4300537109375" height="465.20001220703125"><defs><style>.cls-1,.cls-2,.cls-3{stroke-width:0px;}.cls-2{fill:#ec1c24;}.cls-3{fill:#fff;}</style></defs><circle class="cls-3" cx="232.6" cy="232.6" r="185.44"/><path class="cls-2" d="M418.98,93.23C376.57,36.62,308.86,0,232.35,0S88.55,36.62,46.19,93.23C17.18,132,0,180.15,0,232.35,0,360.75,103.94,465.2,232.35,465.2s232.85-103.94,232.85-232.85c0-52.19-17.18-100.34-46.22-139.12ZM347.3,313.1c-.11.56-.23,1.1-.35,1.6-.22.88-.45,1.64-.66,2.28-.15.45-.29.87-.41,1.18v1.01c-.73,1.99-1.5,3.9-2.32,5.74-2.47,5.52-5.35,10.39-8.6,14.69-2.17,2.86-4.49,5.47-6.96,7.84-4.93,4.74-10.43,8.55-16.34,11.59-8.87,4.56-18.66,7.4-28.89,9.1-3.85.63-7.74,1.07-11.72,1.33-1.99.13-4,.21-6.05.24-4.09.07-8.29-.06-12.67-.37-10.95-.77-22.98-2.71-36.91-5.81-5.58-1.24-11.46-2.66-17.7-4.26-3.12-.8-6.33-1.65-9.64-2.55-6.61-1.79-13.61-3.76-21.05-5.91-3.72-1.08-7.55-2.2-11.49-3.37h0s-2.9,4.16-8.08,6.94c-5.17,2.78-12.62,4.17-21.71-1.39-3.6-2.27-6.06-5.89-7.36-9.96-.22-.68-.4-1.37-.55-2.06-.3-1.4-.48-2.82-.52-4.25-.04-1.43.04-2.85.26-4.25s.57-2.75,1.05-4.04c.48-1.29,1.1-2.51,1.85-3.63.37-.56.78-1.09,1.22-1.6l69.67-84.81h0,0s-11.11,0-11.11,0c-3.22,0-5.44-1.06-6.97-2.58-1.02-1.01-1.72-2.22-2.2-3.46-.72-1.85-.93-3.74-.93-5.07,0-7.07,3.53-16.66,12.62-16.66h30.8l60.58-74.21h-132.27c-1.01,0-2.02-.5-3.03-1.01-1.7-.47-3.35-1.64-4.89-3.31-1.02-1.12-1.99-2.46-2.89-3.97-4.95-8.33-7.77-21.87-5.34-31.59.5-1.51,1.01-2.52,2.52-2.52h188.81c3.47.16,6.74,1.15,9.61,2.79,1.14.65,2.22,1.41,3.22,2.25.5.42.98.87,1.44,1.33,1.37,1.4,2.55,2.98,3.49,4.71,1.56,2.88,2.45,6.15,2.45,9.62s-1.01,8.08-3.53,11.11l-2.52,3.53-65.12,81.28h13.63c1.89,0,3.38.1,4.51.47.57.19,1.05.45,1.45.8.2.18.38.38.55.61.33.45.58,1.02.76,1.71.18.69.3,1.51.36,2.49.11,1.95,0,4.52-.3,7.89-.07.84-.16,1.74-.25,2.68-.19,2.18-.63,3.91-1.27,5.29-.43.92-.95,1.69-1.56,2.33s-1.29,1.15-2.04,1.56c-1.51.82-3.29,1.24-5.26,1.47-.49.06-.99.11-1.51.14-1.03.08-2.09.13-3.18.17-.57.02-1.15.04-1.74.07-.53.02-1.07.05-1.61.08h-25.75l-42.04,53.25-18.55,23.49h0,0c5.59,1.84,11.23,3.59,16.81,5.23,1.04.31,2.07.61,3.11.91,3.44.99,6.86,1.95,10.21,2.84,7.83,2.08,15.38,3.87,22.32,5.25,3.23.64,6.31,1.19,9.25,1.64,3.39.52,6.57.93,9.49,1.17,4.08.34,7.66.4,10.59.11,5.17-.38,10.07-1.1,14.59-2.27,2.26-.58,4.44-1.28,6.51-2.09,2.07-.82,4.04-1.76,5.91-2.83,2.79-1.61,5.34-3.52,7.6-5.77,1.51-1.5,2.89-3.16,4.14-4.97,1.04-1.51,1.96-3.17,2.81-4.92.68-1.4,1.32-2.85,1.86-4.4v-.51c.5-1.51,1.26-3.44,2.31-5.45,3.15-6.03,8.92-12.85,18.39-11.71.63.13,1.33.25,2.05.39,2.18.43,4.64.99,6.53,2.13,1.96.95,3.59,2.04,4.95,3.22.68.59,1.29,1.21,1.83,1.85,2.18,2.55,3.36,5.42,3.9,8.26.27,1.42.39,2.84.39,4.2,0,2.05-.24,3.99-.57,5.67Z"/><path class="cls-1" d="M572.27,107.53h21.33l44.48,67.79c4.46,6.78,9.76,18.19,9.76,18.19h.33s-1.16-11.24-1.16-18.19v-67.79h21.17v117.4h-21.17l-44.48-67.63c-4.47-6.78-9.76-18.19-9.76-18.19h-.33s1.16,11.24,1.16,18.19v67.63h-21.33v-117.4Z"/><path class="cls-1" d="M729.02,172.02h2.81v-1.16c0-11.08-6.95-14.88-16.21-14.88-12.07,0-23.15,8.1-23.15,8.1l-7.94-15.05s13.06-10.42,33.07-10.42c22.16,0,35.05,12.24,35.05,33.57v52.75h-19.35v-6.95c0-3.31.33-5.95.33-5.95h-.33c.16,0-6.45,14.88-25.63,14.88-15.05,0-28.61-9.43-28.61-26.29,0-26.79,36.21-28.61,49.94-28.61ZM712.98,210.54c11.08,0,19.01-11.9,19.01-22.16v-1.98h-3.64c-10.75,0-28.11,1.49-28.11,13.23,0,5.62,4.13,10.91,12.73,10.91Z"/><path class="cls-1" d="M769.19,158.62h-10.91v-16.7h11.41v-24.31h20.5v24.31h19.18v16.7h-19.18v32.74c0,13.89,10.91,15.87,16.7,15.87,2.32,0,3.8-.33,3.8-.33v18.35s-2.48.5-6.45.5c-11.74,0-35.05-3.47-35.05-31.75v-35.39Z"/><path class="cls-1" d="M819.46,107.53h20.83v18.68h-20.83v-18.68ZM819.46,140.6h21v84.33h-21v-84.33Z"/><path class="cls-1" d="M895.19,138.61c25.79,0,46.46,18.35,46.46,44.15s-20.67,44.15-46.3,44.15-46.46-18.19-46.46-44.15,20.67-44.15,46.3-44.15ZM895.35,209.06c13.56,0,24.97-10.58,24.97-26.29s-11.41-26.29-24.97-26.29-25.13,10.75-25.13,26.29,11.41,26.29,25.13,26.29Z"/><path class="cls-1" d="M950.08,140.6h20.17v9.76c0,3.14-.33,5.79-.33,5.79h.33c3.64-7.11,12.9-17.53,29.93-17.53,18.68,0,29.27,9.76,29.27,32.08v54.24h-20.83v-49.94c0-10.25-2.64-17.2-13.39-17.2s-19.51,7.11-22.65,17.2c-1.16,3.47-1.49,7.28-1.49,11.24v38.69h-21v-84.33Z"/><path class="cls-1" d="M1085.83,172.02h2.81v-1.16c0-11.08-6.95-14.88-16.21-14.88-12.07,0-23.15,8.1-23.15,8.1l-7.94-15.05s13.06-10.42,33.07-10.42c22.16,0,35.05,12.24,35.05,33.57v52.75h-19.35v-6.95c0-3.31.33-5.95.33-5.95h-.33c.16,0-6.45,14.88-25.63,14.88-15.05,0-28.61-9.43-28.61-26.29,0-26.79,36.21-28.61,49.94-28.61ZM1069.79,210.54c11.08,0,19.01-11.9,19.01-22.16v-1.98h-3.64c-10.75,0-28.11,1.49-28.11,13.23,0,5.62,4.13,10.91,12.73,10.91Z"/><path class="cls-1" d="M1121.7,107.53h20.83v87.97c0,9.26,3.14,11.57,8.6,11.57,1.65,0,3.14-.16,3.14-.16v18.35s-3.14.5-6.61.5c-11.58,0-25.96-2.98-25.96-27.12v-91.11Z"/><path class="cls-1" d="M1187.84,211.2l52.09-74.74c4.63-6.78,8.6-10.58,8.6-10.58v-.33s-3.31.33-8.76.33h-49.28v-18.35h84.83v13.56l-52.09,74.91c-4.63,6.78-8.6,10.58-8.6,10.58v.33s3.31-.33,8.76-.33h52.58v18.35h-88.13v-13.72Z"/><path class="cls-1" d="M1329.05,172.02h2.81v-1.16c0-11.08-6.95-14.88-16.2-14.88-12.07,0-23.15,8.1-23.15,8.1l-7.94-15.05s13.06-10.42,33.07-10.42c22.16,0,35.06,12.24,35.06,33.57v52.75h-19.35v-6.95c0-3.31.33-5.95.33-5.95h-.33c.16,0-6.45,14.88-25.63,14.88-15.05,0-28.61-9.43-28.61-26.29,0-26.79,36.21-28.61,49.94-28.61ZM1313.01,210.54c11.08,0,19.02-11.9,19.02-22.16v-1.98h-3.64c-10.75,0-28.11,1.49-28.11,13.23,0,5.62,4.13,10.91,12.73,10.91Z"/><path class="cls-1" d="M1366.08,107.53h21v62.83h10.42l20.34-29.76h23.32l-26.62,37.7v.33l29.93,46.3h-24.14l-22.32-36.87h-10.91v36.87h-21v-117.4Z"/><path class="cls-1" d="M1491.74,172.02h2.81v-1.16c0-11.08-6.95-14.88-16.21-14.88-12.07,0-23.15,8.1-23.15,8.1l-7.94-15.05s13.06-10.42,33.07-10.42c22.16,0,35.05,12.24,35.05,33.57v52.75h-19.35v-6.95c0-3.31.33-5.95.33-5.95h-.33c.16,0-6.45,14.88-25.63,14.88-15.05,0-28.61-9.43-28.61-26.29,0-26.79,36.21-28.61,49.94-28.61ZM1475.71,210.54c11.08,0,19.01-11.9,19.01-22.16v-1.98h-3.64c-10.75,0-28.11,1.49-28.11,13.23,0,5.62,4.13,10.91,12.73,10.91Z"/><path class="cls-1" d="M1531.92,158.62h-10.91v-16.7h11.41v-24.31h20.5v24.31h19.18v16.7h-19.18v32.74c0,13.89,10.91,15.87,16.7,15.87,2.32,0,3.8-.33,3.8-.33v18.35s-2.48.5-6.45.5c-11.74,0-35.05-3.47-35.05-31.75v-35.39Z"/><path class="cls-1" d="M574.25,246.5h61.18v10.25h-49.77v43.65h42.66v10.25h-42.66v52.09h-11.41v-116.24Z"/><path class="cls-1" d="M682.55,277.59c24.31,0,43.98,18.52,43.98,43.16s-19.68,43.98-43.98,43.98-43.98-18.85-43.98-43.98,19.68-43.16,43.98-43.16ZM682.55,354.64c17.86,0,32.41-14.55,32.41-33.9s-14.55-32.91-32.41-32.91-32.41,14.06-32.41,32.91,14.55,33.9,32.41,33.9Z"/><path class="cls-1" d="M735.13,279.57h11.24v49.94c0,13.06,1.98,24.64,18.02,24.64,19.01,0,30.75-16.7,30.75-34.72v-39.85h11.24v83.17h-10.91v-12.4c0-3.64.33-6.61.33-6.61h-.33c-3.31,8.1-14.22,21-32.57,21-19.51,0-27.78-10.58-27.78-32.24v-52.91Z"/><path class="cls-1" d="M822.27,279.57h11.08v12.4c0,3.64-.33,6.61-.33,6.61h.33c2.98-7.61,13.56-21,33.24-21s27.78,11.74,27.78,32.24v52.91h-11.24v-49.94c0-13.06-1.98-24.64-18.02-24.64-14.22,0-26.46,9.76-30.26,23.48-.99,3.47-1.32,7.28-1.32,11.24v39.85h-11.24v-83.17Z"/><path class="cls-1" d="M940.99,277.59c20.17,0,27.12,15.71,27.12,15.71h.33s-.33-2.81-.33-6.28v-40.51h11.24v116.24h-10.91v-8.76c0-3.64.33-5.95.33-5.95h-.33s-6.78,16.7-28.61,16.7-36.21-17.86-36.21-43.65,15.54-43.49,37.37-43.49ZM941.48,354.64c13.89,0,26.95-9.92,26.95-33.57,0-16.87-8.6-33.4-26.46-33.4-14.72,0-26.79,12.4-26.79,33.4s10.75,33.57,26.29,33.57Z"/><path class="cls-1" d="M1039.36,311.32h4.63v-2.15c0-16.04-8.76-21.5-20.67-21.5-13.72,0-23.48,7.94-23.48,7.94l-5.29-8.6s10.91-9.43,29.6-9.43c20.01,0,31.09,11.08,31.09,31.91v53.24h-10.75v-9.09c0-4.13.33-6.95.33-6.95h-.33s-6.95,18.02-27.78,18.02c-13.89,0-28.28-8.1-28.28-24.64,0-28.11,36.54-28.77,50.93-28.77ZM1018.53,355.14c15.87,0,25.46-16.54,25.46-30.92v-3.64h-4.79c-13.06,0-39.19.5-39.19,18.85,0,7.77,6.12,15.71,18.52,15.71Z"/><path class="cls-1" d="M1072.6,289.99h-10.91v-9.43h11.08v-23.98h11.08v23.98h20.83v9.43h-20.83v41.34c0,19.51,12.4,21.99,18.69,21.99,2.31,0,3.8-.33,3.8-.33v10.09s-1.82.33-4.8.33c-9.59,0-28.94-3.14-28.94-30.92v-42.5Z"/><path class="cls-1" d="M1113.27,246.5h11.74v14.05h-11.74v-14.05ZM1113.6,279.57h11.24v83.17h-11.24v-83.17Z"/><path class="cls-1" d="M1178.58,277.59c24.31,0,43.98,18.52,43.98,43.16s-19.68,43.98-43.98,43.98-43.98-18.85-43.98-43.98,19.68-43.16,43.98-43.16ZM1178.58,354.64c17.86,0,32.41-14.55,32.41-33.9s-14.55-32.91-32.41-32.91-32.41,14.06-32.41,32.91,14.55,33.9,32.41,33.9Z"/><path class="cls-1" d="M1232.32,279.57h11.08v12.4c0,3.64-.33,6.61-.33,6.61h.33c2.98-7.61,13.56-21,33.24-21s27.78,11.74,27.78,32.24v52.91h-11.24v-49.94c0-13.06-1.98-24.64-18.02-24.64-14.22,0-26.46,9.76-30.26,23.48-.99,3.47-1.32,7.28-1.32,11.24v39.85h-11.24v-83.17Z"/></svg>